# Blender 4.5.0
# www.blender.org
mtllib sword.mtl
o Cube
v 0.821948 -15.990204 -0.611835
v 0.585796 1.007483 0.124056
v 0.585796 1.007483 -1.347727
v 1.058100 1.007483 0.124056
v 1.058100 1.007483 -1.347727
v 0.585796 -12.431200 0.124056
v 0.585796 -12.431200 -1.347727
v 1.058100 -12.431200 -1.347727
v 1.058100 -12.431200 0.124056
vn -1.0000 -0.0000 -0.0000
vn -0.0000 -0.0000 -1.0000
vn 1.0000 -0.0000 -0.0000
vn -0.0000 -0.0000 1.0000
vn -0.0000 1.0000 -0.0000
vn -0.0000 -0.2025 0.9793
vn 0.9978 -0.0662 -0.0000
vn -0.0000 -0.2025 -0.9793
vn -0.9978 -0.0662 -0.0000
vt 0.427345 0.000000
vt 0.625000 0.000000
vt 0.625000 0.250000
vt 0.427345 0.250000
vt 0.625000 0.500000
vt 0.427345 0.500000
vt 0.625000 0.750000
vt 0.427345 0.750000
vt 0.625000 1.000000
vt 0.427345 1.000000
vt 0.875000 0.500000
vt 0.875000 0.750000
vt 0.375000 0.750000
vt 0.375000 0.500000
vt 0.375000 0.250000
vt 0.375000 0.000000
s 0
usemtl Material.002
f 6/1/1 2/2/1 3/3/1 7/4/1
f 7/4/2 3/3/2 5/5/2 8/6/2
f 8/6/3 5/5/3 4/7/3 9/8/3
f 9/8/4 4/7/4 2/9/4 6/10/4
f 5/5/5 3/11/5 2/12/5 4/7/5
f 1/13/6 9/8/6 6/10/6
f 1/14/7 8/6/7 9/8/7
f 1/15/8 7/4/8 8/6/8
f 1/16/9 6/1/9 7/4/9
o Cube.001
v 0.687855 0.848983 0.812509
v 0.687855 1.101712 2.744792
v 0.505943 1.101712 0.812509
v 0.687855 1.474301 2.744792
v 0.687855 1.727030 0.812509
v 0.505943 1.474301 0.812509
v 0.687855 0.848983 -2.036180
v 0.505943 1.101712 -2.036180
v 0.687855 1.101712 -3.968463
v 0.687855 1.727030 -2.036180
v 0.687855 1.474301 -3.968463
v 0.505943 1.474301 -2.036180
v 0.956041 0.848983 0.812509
v 1.137953 1.101712 0.812509
v 0.956041 1.101712 2.744792
v 0.956041 1.727030 0.812509
v 0.956041 1.474301 2.744792
v 1.137953 1.474301 0.812509
v 0.956041 0.848983 -2.036180
v 0.956041 1.101712 -3.968463
v 1.137953 1.101712 -2.036180
v 0.956041 1.727030 -2.036180
v 1.137953 1.474301 -2.036180
v 0.956041 1.474301 -3.968463
vn -0.8093 -0.5825 0.0762
vn -0.8093 0.5825 0.0762
vn -0.8093 -0.5825 -0.0762
vn -0.8093 0.5825 -0.0762
vn 0.8093 -0.5825 0.0762
vn 0.8093 0.5825 0.0762
vn 0.8093 -0.5825 -0.0762
vn 0.8093 0.5825 -0.0762
vn -0.8116 -0.5842 -0.0000
vn -0.9956 -0.0000 0.0937
vn -0.8116 0.5842 -0.0000
vn -0.9956 -0.0000 -0.0937
vn -0.0000 -0.9916 -0.1297
vn -0.0000 0.9916 -0.1297
vn 0.9956 -0.0000 -0.0937
vn 0.8116 -0.5842 -0.0000
vn 0.8116 0.5842 -0.0000
vn 0.9956 -0.0000 0.0937
vn -0.0000 -0.9916 0.1297
vn -0.0000 0.9916 0.1297
vn -0.0000 -1.0000 -0.0000
vn -1.0000 -0.0000 -0.0000
vn -0.0000 -0.0000 1.0000
vn -0.0000 1.0000 -0.0000
vn -0.0000 -0.0000 -1.0000
vn 1.0000 -0.0000 -0.0000
vt 0.196958 0.678042
vt 0.196958 0.750000
vt 0.125000 0.678042
vt 0.553042 0.000000
vt 0.625000 0.071958
vt 0.553042 0.071958
vt 0.196958 0.571958
vt 0.125000 0.571958
vt 0.196958 0.500000
vt 0.625000 0.237625
vt 0.553042 0.313314
vt 0.553042 0.178042
vt 0.303042 0.678042
vt 0.438314 0.678042
vt 0.388050 0.792504
vt 0.667504 0.736950
vt 0.553042 0.821958
vt 0.553042 0.686686
vt 0.303042 0.571958
vt 0.388050 0.457496
vt 0.438314 0.571958
vt 0.667504 0.513050
vt 0.553042 0.563314
vt 0.553042 0.428042
vt 0.446958 0.000000
vt 0.446958 0.071958
vt 0.446958 0.321958
vt 0.446958 0.178042
vt 0.625000 0.928042
vt 0.553042 0.928042
vt 0.446958 0.928042
vt 0.803042 0.571958
vt 0.803042 0.678042
s 0
usemtl Material.002
f 10/17/10 11/18/10 12/19/10
f 13/20/11 14/21/11 15/22/11
f 16/23/12 17/24/12 18/25/12
f 19/26/13 20/27/13 21/28/13
f 22/29/14 23/30/14 24/31/14
f 25/32/15 26/33/15 27/34/15
f 28/35/16 29/36/16 30/37/16
f 31/38/17 32/39/17 33/40/17
f 16/23/18 10/17/18 12/19/18 17/24/18
f 11/41/19 13/20/19 15/22/19 12/42/19
f 14/21/20 19/26/20 21/28/20 15/22/20
f 20/27/21 18/43/21 17/44/21 21/28/21
f 28/35/22 16/23/22 18/25/22 29/36/22
f 19/26/23 31/38/23 33/40/23 20/27/23
f 32/39/24 30/37/24 29/36/24 33/40/24
f 22/29/25 28/35/25 30/37/25 23/30/25
f 31/38/26 25/32/26 27/34/26 32/39/26
f 26/33/27 24/31/27 23/30/27 27/34/27
f 10/17/28 22/29/28 24/31/28 11/18/28
f 25/32/29 14/45/29 13/46/29 26/33/29
f 16/23/30 28/35/30 22/29/30 10/17/30
f 12/42/31 15/22/31 21/28/31 17/44/31
f 24/31/32 26/33/32 13/46/32 11/47/32
f 31/38/33 19/48/33 14/49/33 25/32/33
f 18/43/34 20/27/34 33/40/34 29/36/34
f 30/37/35 32/39/35 27/34/35 23/30/35
o Cylinder
v 0.821948 1.473468 -1.309338
v 0.821948 9.173406 -1.309338
v 0.884013 1.473468 -1.295936
v 0.884013 9.173406 -1.295936
v 0.943694 1.473468 -1.256244
v 0.943694 9.173406 -1.256244
v 0.998695 1.473468 -1.191788
v 0.998695 9.173406 -1.191788
v 1.046904 1.473468 -1.105044
v 1.046904 9.173406 -1.105044
v 1.086469 1.473468 -0.999347
v 1.086469 9.173406 -0.999347
v 1.115868 1.473468 -0.878758
v 1.115868 9.173406 -0.878758
v 1.133972 1.473468 -0.747912
v 1.133972 9.173406 -0.747912
v 1.140085 1.473468 -0.611835
v 1.140085 9.173406 -0.611835
v 1.133972 1.473468 -0.475759
v 1.133972 9.173406 -0.475759
v 1.115868 1.473468 -0.344913
v 1.115868 9.173406 -0.344913
v 1.086469 1.473468 -0.224324
v 1.086469 9.173406 -0.224324
v 1.046904 1.473468 -0.118627
v 1.046904 9.173406 -0.118627
v 0.998695 1.473468 -0.031883
v 0.998695 9.173406 -0.031883
v 0.943694 1.473468 0.032573
v 0.943694 9.173406 0.032573
v 0.884013 1.473468 0.072265
v 0.884013 9.173406 0.072265
v 0.821948 1.473468 0.085667
v 0.821948 9.173406 0.085667
v 0.759883 1.473468 0.072265
v 0.759883 9.173406 0.072265
v 0.700202 1.473468 0.032573
v 0.700202 9.173406 0.032573
v 0.645201 1.473468 -0.031883
v 0.645201 9.173406 -0.031883
v 0.596991 1.473468 -0.118627
v 0.596991 9.173406 -0.118627
v 0.557427 1.473468 -0.224324
v 0.557427 9.173406 -0.224324
v 0.528028 1.473468 -0.344913
v 0.528028 9.173406 -0.344913
v 0.509924 1.473468 -0.475759
v 0.509924 9.173406 -0.475759
v 0.503811 1.473468 -0.611835
v 0.503811 9.173406 -0.611835
v 0.509924 1.473468 -0.747912
v 0.509924 9.173406 -0.747912
v 0.528028 1.473468 -0.878758
v 0.528028 9.173406 -0.878758
v 0.557427 1.473468 -0.999347
v 0.557427 9.173406 -0.999347
v 0.596991 1.473468 -1.105044
v 0.596991 9.173406 -1.105044
v 0.645201 1.473468 -1.191788
v 0.645201 9.173406 -1.191788
v 0.700202 1.473468 -1.256244
v 0.700202 9.173406 -1.256244
v 0.759883 1.473468 -1.295936
v 0.759883 9.173406 -1.295936
vn 0.2111 -0.0000 -0.9775
vn 0.5538 -0.0000 -0.8327
vn 0.7607 -0.0000 -0.6491
vn 0.8741 -0.0000 -0.4858
vn 0.9365 -0.0000 -0.3506
vn 0.9715 -0.0000 -0.2369
vn 0.9906 -0.0000 -0.1371
vn 0.9990 -0.0000 -0.0449
vn 0.9990 -0.0000 0.0449
vn 0.9906 -0.0000 0.1371
vn 0.9715 -0.0000 0.2369
vn 0.9365 -0.0000 0.3506
vn 0.8741 -0.0000 0.4858
vn 0.7607 -0.0000 0.6491
vn 0.5538 -0.0000 0.8327
vn 0.2111 -0.0000 0.9775
vn -0.2111 -0.0000 0.9775
vn -0.5538 -0.0000 0.8327
vn -0.7607 -0.0000 0.6491
vn -0.8741 -0.0000 0.4858
vn -0.9365 -0.0000 0.3506
vn -0.9715 -0.0000 0.2369
vn -0.9906 -0.0000 0.1371
vn -0.9990 -0.0000 0.0449
vn -0.9990 -0.0000 -0.0449
vn -0.9906 -0.0000 -0.1371
vn -0.9715 -0.0000 -0.2369
vn -0.9365 -0.0000 -0.3506
vn -0.8741 -0.0000 -0.4858
vn -0.7607 -0.0000 -0.6491
vn -0.0000 1.0000 -0.0000
vn -0.5538 -0.0000 -0.8327
vn -0.2111 -0.0000 -0.9775
vn -0.0000 -1.0000 -0.0000
vt 1.000000 0.500000
vt 1.000000 1.000000
vt 0.968750 1.000000
vt 0.968750 0.500000
vt 0.937500 1.000000
vt 0.937500 0.500000
vt 0.906250 1.000000
vt 0.906250 0.500000
vt 0.875000 1.000000
vt 0.875000 0.500000
vt 0.843750 1.000000
vt 0.843750 0.500000
vt 0.812500 1.000000
vt 0.812500 0.500000
vt 0.781250 1.000000
vt 0.781250 0.500000
vt 0.750000 1.000000
vt 0.750000 0.500000
vt 0.718750 1.000000
vt 0.718750 0.500000
vt 0.687500 1.000000
vt 0.687500 0.500000
vt 0.656250 1.000000
vt 0.656250 0.500000
vt 0.625000 1.000000
vt 0.625000 0.500000
vt 0.593750 1.000000
vt 0.593750 0.500000
vt 0.562500 1.000000
vt 0.562500 0.500000
vt 0.531250 1.000000
vt 0.531250 0.500000
vt 0.500000 1.000000
vt 0.500000 0.500000
vt 0.468750 1.000000
vt 0.468750 0.500000
vt 0.437500 1.000000
vt 0.437500 0.500000
vt 0.406250 1.000000
vt 0.406250 0.500000
vt 0.375000 1.000000
vt 0.375000 0.500000
vt 0.343750 1.000000
vt 0.343750 0.500000
vt 0.312500 1.000000
vt 0.312500 0.500000
vt 0.281250 1.000000
vt 0.281250 0.500000
vt 0.250000 1.000000
vt 0.250000 0.500000
vt 0.218750 1.000000
vt 0.218750 0.500000
vt 0.187500 1.000000
vt 0.187500 0.500000
vt 0.156250 1.000000
vt 0.156250 0.500000
vt 0.125000 1.000000
vt 0.125000 0.500000
vt 0.093750 1.000000
vt 0.093750 0.500000
vt 0.062500 1.000000
vt 0.062500 0.500000
vt 0.296822 0.485388
vt 0.250000 0.490000
vt 0.203178 0.485388
vt 0.158156 0.471731
vt 0.116663 0.449553
vt 0.080294 0.419706
vt 0.050447 0.383337
vt 0.028269 0.341844
vt 0.014612 0.296822
vt 0.010000 0.250000
vt 0.014612 0.203178
vt 0.028269 0.158156
vt 0.050447 0.116663
vt 0.080294 0.080294
vt 0.116663 0.050447
vt 0.158156 0.028269
vt 0.203178 0.014612
vt 0.250000 0.010000
vt 0.296822 0.014612
vt 0.341844 0.028269
vt 0.383337 0.050447
vt 0.419706 0.080294
vt 0.449553 0.116663
vt 0.471731 0.158156
vt 0.485388 0.203178
vt 0.490000 0.250000
vt 0.485388 0.296822
vt 0.471731 0.341844
vt 0.449553 0.383337
vt 0.419706 0.419706
vt 0.383337 0.449553
vt 0.341844 0.471731
vt 0.031250 1.000000
vt 0.031250 0.500000
vt 0.000000 1.000000
vt 0.000000 0.500000
vt 0.750000 0.490000
vt 0.796822 0.485388
vt 0.841844 0.471731
vt 0.883337 0.449553
vt 0.919706 0.419706
vt 0.949553 0.383337
vt 0.971731 0.341844
vt 0.985388 0.296822
vt 0.990000 0.250000
vt 0.985388 0.203178
vt 0.971731 0.158156
vt 0.949553 0.116663
vt 0.919706 0.080294
vt 0.883337 0.050447
vt 0.841844 0.028269
vt 0.796822 0.014612
vt 0.750000 0.010000
vt 0.703178 0.014612
vt 0.658156 0.028269
vt 0.616663 0.050447
vt 0.580294 0.080294
vt 0.550447 0.116663
vt 0.528269 0.158156
vt 0.514612 0.203178
vt 0.510000 0.250000
vt 0.514612 0.296822
vt 0.528269 0.341844
vt 0.550447 0.383337
vt 0.580294 0.419706
vt 0.616663 0.449553
vt 0.658156 0.471731
vt 0.703178 0.485388
s 0
usemtl Material.001
f 34/50/36 35/51/36 37/52/36 36/53/36
f 36/53/37 37/52/37 39/54/37 38/55/37
f 38/55/38 39/54/38 41/56/38 40/57/38
f 40/57/39 41/56/39 43/58/39 42/59/39
f 42/59/40 43/58/40 45/60/40 44/61/40
f 44/61/41 45/60/41 47/62/41 46/63/41
f 46/63/42 47/62/42 49/64/42 48/65/42
f 48/65/43 49/64/43 51/66/43 50/67/43
f 50/67/44 51/66/44 53/68/44 52/69/44
f 52/69/45 53/68/45 55/70/45 54/71/45
f 54/71/46 55/70/46 57/72/46 56/73/46
f 56/73/47 57/72/47 59/74/47 58/75/47
f 58/75/48 59/74/48 61/76/48 60/77/48
f 60/77/49 61/76/49 63/78/49 62/79/49
f 62/79/50 63/78/50 65/80/50 64/81/50
f 64/81/51 65/80/51 67/82/51 66/83/51
f 66/83/52 67/82/52 69/84/52 68/85/52
f 68/85/53 69/84/53 71/86/53 70/87/53
f 70/87/54 71/86/54 73/88/54 72/89/54
f 72/89/55 73/88/55 75/90/55 74/91/55
f 74/91/56 75/90/56 77/92/56 76/93/56
f 76/93/57 77/92/57 79/94/57 78/95/57
f 78/95/58 79/94/58 81/96/58 80/97/58
f 80/97/59 81/96/59 83/98/59 82/99/59
f 82/99/60 83/98/60 85/100/60 84/101/60
f 84/101/61 85/100/61 87/102/61 86/103/61
f 86/103/62 87/102/62 89/104/62 88/105/62
f 88/105/63 89/104/63 91/106/63 90/107/63
f 90/107/64 91/106/64 93/108/64 92/109/64
f 92/109/65 93/108/65 95/110/65 94/111/65
f 37/112/66 35/113/66 97/114/66 95/115/66 93/116/66 91/117/66 89/118/66 87/119/66 85/120/66 83/121/66 81/122/66 79/123/66 77/124/66 75/125/66 73/126/66 71/127/66 69/128/66 67/129/66 65/130/66 63/131/66 61/132/66 59/133/66 57/134/66 55/135/66 53/136/66 51/137/66 49/138/66 47/139/66 45/140/66 43/141/66 41/142/66 39/143/66
f 94/111/67 95/110/67 97/144/67 96/145/67
f 96/145/68 97/144/68 35/146/68 34/147/68
f 34/148/69 36/149/69 38/150/69 40/151/69 42/152/69 44/153/69 46/154/69 48/155/69 50/156/69 52/157/69 54/158/69 56/159/69 58/160/69 60/161/69 62/162/69 64/163/69 66/164/69 68/165/69 70/166/69 72/167/69 74/168/69 76/169/69 78/170/69 80/171/69 82/172/69 84/173/69 86/174/69 88/175/69 90/176/69 92/177/69 94/178/69 96/179/69
